<svg width="0" height="0" class="hidden">
  <symbol version="1.1" id="twitter-svgrepo-com" xmlns="http://www.w3.org/2000/svg" xmlns:xlink="http://www.w3.org/1999/xlink" x="0px" y="0px" xml:space="preserve" viewBox="0 0 512.002 512.002">
    <path d="M500.398,94.784c-8.043,3.567-16.313,6.578-24.763,9.023c10.004-11.314,17.631-24.626,22.287-39.193
	c1.044-3.265-0.038-6.839-2.722-8.975c-2.681-2.137-6.405-2.393-9.356-0.644c-17.945,10.643-37.305,18.292-57.605,22.764
	c-20.449-19.981-48.222-31.353-76.934-31.353c-60.606,0-109.913,49.306-109.913,109.91c0,4.773,0.302,9.52,0.9,14.201
	c-75.206-6.603-145.124-43.568-193.136-102.463c-1.711-2.099-4.347-3.231-7.046-3.014c-2.7,0.211-5.127,1.734-6.491,4.075
	c-9.738,16.709-14.886,35.82-14.886,55.265c0,26.484,9.455,51.611,26.158,71.246c-5.079-1.759-10.007-3.957-14.711-6.568
	c-2.525-1.406-5.607-1.384-8.116,0.054c-2.51,1.439-4.084,4.084-4.151,6.976c-0.012,0.487-0.012,0.974-0.012,1.468
	c0,39.531,21.276,75.122,53.805,94.52c-2.795-0.279-5.587-0.684-8.362-1.214c-2.861-0.547-5.802,0.456-7.731,2.638
	c-1.932,2.18-2.572,5.219-1.681,7.994c12.04,37.591,43.039,65.24,80.514,73.67c-31.082,19.468-66.626,29.665-103.939,29.665
	c-7.786,0-15.616-0.457-23.279-1.364c-3.807-0.453-7.447,1.795-8.744,5.416c-1.297,3.622,0.078,7.66,3.316,9.736
	c47.935,30.735,103.361,46.98,160.284,46.98c111.903,0,181.907-52.769,220.926-97.037c48.657-55.199,76.562-128.261,76.562-200.451
	c0-3.016-0.046-6.061-0.139-9.097c19.197-14.463,35.724-31.967,49.173-52.085c2.043-3.055,1.822-7.094-0.545-9.906
	C507.7,94.204,503.76,93.294,500.398,94.784z"></path>
    <g></g>
    <g></g>
    <g></g>
    <g></g>
    <g></g>
    <g></g>
    <g></g>
    <g></g>
    <g></g>
    <g></g>
    <g></g>
    <g></g>
    <g></g>
    <g></g>
    <g></g>
  </symbol>
  <symbol xmlns="http://www.w3.org/2000/svg" viewBox="0 0 512 512" id="bulb-svgrepo-com">
    <title>ionicons-v5-h</title>
    <path d="M288,464H224a16,16,0,0,0,0,32h64a16,16,0,0,0,0-32Z"></path>
    <path d="M304,416H208a16,16,0,0,0,0,32h96a16,16,0,0,0,0-32Z"></path>
    <path d="M369.42,62.69C339.35,32.58,299.07,16,256,16A159.62,159.62,0,0,0,96,176c0,46.62,17.87,90.23,49,119.64l4.36,4.09C167.37,316.57,192,339.64,192,360v24a16,16,0,0,0,16,16h24a8,8,0,0,0,8-8V274.82a8,8,0,0,0-5.13-7.47A130.73,130.73,0,0,1,208.71,253,16,16,0,1,1,227.29,227c7.4,5.24,21.65,13,28.71,13s21.31-7.78,28.73-13A16,16,0,0,1,303.29,253a130.73,130.73,0,0,1-26.16,14.32,8,8,0,0,0-5.13,7.47V392a8,8,0,0,0,8,8h24a16,16,0,0,0,16-16V360c0-19.88,24.36-42.93,42.15-59.77l4.91-4.66C399.08,265,416,223.61,416,176A159.16,159.16,0,0,0,369.42,62.69Z"></path>
  </symbol>
  <symbol version="1.1" id="computer-svgrepo-com" xmlns="http://www.w3.org/2000/svg" xmlns:xlink="http://www.w3.org/1999/xlink" x="0px" y="0px" xml:space="preserve" viewBox="0 0 488.4 488.4">
    <g>
      <g>
        <rect x="103.1" y="453.5" width="282.2" height="34.9"></rect>
        <rect x="143" y="367.5" width="202" height="66.3"></rect>
        <path d="M0,0v348.1h488.4V0H0z M461.7,311.3c0,5.4-4.3,9.7-9.7,9.7H36.4c-5.4,0-9.7-4.3-9.7-9.7V36.8c0-5.4,4.3-9.7,9.7-9.7H452
			c5.4,0,9.7,4.3,9.7,9.7L461.7,311.3L461.7,311.3z"></path>
        <path d="M46.1,301.6h396.2V46.5H46.1V301.6z M309.7,194.2c0-1.9,1.2-3.5,2.7-4.3l54.7-25.2l-54.7-24.8c-1.6-0.8-2.7-2.3-2.7-4.3
			V116c0-3.3,3.4-5.4,6.3-4l82.4,38.3c1.6,0.8,2.7,2.3,2.7,4.3v21.7c0,1.9-1.2,3.5-2.7,4.3L316,218.5c-3,1.4-6.4-0.8-6.4-4.1v-20.2
			H309.7z M188.5,253.2l75.8-162.5c0.8-1.6,2.3-2.7,4.3-2.7h17.2c3.5,0,5.9,3.7,4.4,6.9l-75.9,162.5c-0.8,1.6-2.3,2.7-4.3,2.7h-17.2
			C189.4,260.1,187,256.4,188.5,253.2z M87.6,154.7c0-1.9,1.2-3.5,2.7-4.3l82.5-38.3c2.9-1.4,6.3,0.8,6.3,4v20
			c0,1.9-1.2,3.5-2.7,4.3l-54.7,24.8l54.7,25.2c1.6,0.8,2.7,2.3,2.7,4.3v20.4c0,3.2-3.3,5.4-6.3,4l-82.5-37.9
			c-1.6-0.8-2.7-2.3-2.7-4.3C87.6,176.9,87.6,154.7,87.6,154.7z"></path>
      </g>
    </g>
    <g></g>
    <g></g>
    <g></g>
    <g></g>
    <g></g>
    <g></g>
    <g></g>
    <g></g>
    <g></g>
    <g></g>
    <g></g>
    <g></g>
    <g></g>
    <g></g>
    <g></g>
  </symbol>
  <symbol version="1.1" id="whatsapp-svgrepo-com" xmlns="http://www.w3.org/2000/svg" xmlns:xlink="http://www.w3.org/1999/xlink" x="0px" y="0px" xml:space="preserve" viewBox="0 0 496 496">
    <path d="M248.08,0h-0.152l0,0C111.216,0,0,111.224,0,247.992c0,54.232,17.504,104.528,47.224,145.36
	l-30.888,92.152l95.312-30.472c39.2,25.952,86,40.968,136.432,40.968C384.8,496,496,384.752,496,248C496,111.232,384.8,0,248.08,0z
	 M392.368,350.2c-5.96,16.904-29.728,30.904-48.672,35c-12.976,2.76-29.88,4.952-86.864-18.672
	c-72.888-30.176-119.824-104.24-123.464-109.064c-3.504-4.808-29.448-39.216-29.448-74.792s18.072-52.928,25.368-60.368
	c5.976-6.12,15.888-8.872,25.36-8.872c3.072,0,5.824,0.144,8.312,0.272c7.288,0.304,10.928,0.752,15.736,12.256
	c5.976,14.424,20.552,50.008,22.304,53.648c1.744,3.648,3.504,8.6,1.016,13.408c-2.336,4.96-4.368,7.168-8.008,11.384
	c-3.656,4.216-7.16,7.44-10.792,11.952c-3.352,3.936-7.152,8.168-2.912,15.456c4.232,7.16,18.8,30.912,40.224,50
	c27.688,24.64,50.136,32.52,58.16,35.872c5.968,2.488,13.12,1.888,17.496-2.768c5.536-5.984,12.392-15.888,19.384-25.656
	c4.952-7.016,11.224-7.88,17.776-5.408c6.712,2.328,42.144,19.832,49.432,23.48c7.272,3.648,12.088,5.392,13.832,8.456
	C398.352,318.864,398.352,333.288,392.368,350.2z"></path>
    <path d="M0,247.992c0,54.232,17.504,104.528,47.224,145.36l-30.888,92.152l95.312-30.472
	c39.2,25.952,86,40.968,136.432,40.968C384.8,496,496,384.752,496,248C496,111.232,384.8,0,248.08,0h-0.152l0,0 M392.368,350.2
	c-5.96,16.904-29.728,30.904-48.672,35c-12.976,2.76-29.88,4.952-86.864-18.672c-72.888-30.176-119.824-104.24-123.464-109.064
	c-3.504-4.808-29.448-39.216-29.448-74.792s18.072-52.928,25.368-60.368c5.976-6.12,15.888-8.872,25.36-8.872
	c3.072,0,5.824,0.144,8.312,0.272c7.288,0.304,10.928,0.752,15.736,12.256c5.976,14.424,20.552,50.008,22.304,53.648
	c1.744,3.648,3.504,8.6,1.016,13.408c-2.336,4.96-4.368,7.168-8.008,11.384c-3.656,4.216-7.16,7.44-10.792,11.952
	c-3.352,3.936-7.152,8.168-2.912,15.456c4.232,7.16,18.8,30.912,40.224,50c27.688,24.64,50.136,32.52,58.16,35.872
	c5.968,2.488,13.12,1.888,17.496-2.768c5.536-5.984,12.392-15.888,19.384-25.656c4.952-7.016,11.224-7.88,17.776-5.408
	c6.712,2.328,42.144,19.832,49.432,23.48c7.272,3.648,12.088,5.392,13.832,8.456C398.352,318.864,398.352,333.288,392.368,350.2z"></path>
    <g>
      <path d="M327.368,13.08C390.6,67.136,431.872,149.76,431.872,219.712c0,38.528-12.552,74.576-34.352,105.544
		c-0.288,6.392-1.704,15.216-5.16,24.944c-5.96,16.904-29.728,30.904-48.672,35c-3.504,0.744-7.336,1.432-12.128,1.584
		c-41.504,25.88-92.944,41.2-148.664,41.2c-50.176,0-96.856-12.456-135.96-33.832l-30.6,91.352l95.312-30.472
		c39.2,25.952,86,40.968,136.432,40.968C384.8,496,496,384.752,496,248C496,138.976,425.296,46.24,327.368,13.08z"></path>
      <path d="M333.336,283.856c1.664,0.576,5.056,2.08,9.344,4.056l-165.728-165.72
		c0.576,1.096,1.16,2.352,1.744,3.776c5.976,14.424,20.552,50.008,22.304,53.648c1.744,3.648,3.504,8.6,1.016,13.408
		c-2.336,4.96-4.368,7.168-8.008,11.384c-3.656,4.216-7.16,7.44-10.792,11.952c-3.352,3.936-7.152,8.168-2.912,15.456
		c4.232,7.16,18.8,30.912,40.224,50c27.688,24.64,50.136,32.52,58.16,35.872c5.968,2.488,13.12,1.888,17.496-2.768
		c5.536-5.984,12.392-15.888,19.384-25.656C320.512,282.248,326.792,281.384,333.336,283.856z"></path>
    </g>
    <path d="M103.936,182.896l-1.632,1.64l1.784,1.776C104.024,185.176,103.936,184.04,103.936,182.896z"></path>
    <g></g>
    <g></g>
    <g></g>
    <g></g>
    <g></g>
    <g></g>
    <g></g>
    <g></g>
    <g></g>
    <g></g>
    <g></g>
    <g></g>
    <g></g>
    <g></g>
    <g></g>
  </symbol>
  <symbol xmlns="http://www.w3.org/2000/svg" viewBox="0 0 32 32" id="github-svgrepo-com">
    <path d="M16 0.396c-8.839 0-16 7.167-16 16 0 7.073 4.584 13.068 10.937 15.183 0.803 0.151 1.093-0.344 1.093-0.772 0-0.38-0.009-1.385-0.015-2.719-4.453 0.964-5.391-2.151-5.391-2.151-0.729-1.844-1.781-2.339-1.781-2.339-1.448-0.989 0.115-0.968 0.115-0.968 1.604 0.109 2.448 1.645 2.448 1.645 1.427 2.448 3.744 1.74 4.661 1.328 0.14-1.031 0.557-1.74 1.011-2.135-3.552-0.401-7.287-1.776-7.287-7.907 0-1.751 0.62-3.177 1.645-4.297-0.177-0.401-0.719-2.031 0.141-4.235 0 0 1.339-0.427 4.4 1.641 1.281-0.355 2.641-0.532 4-0.541 1.36 0.009 2.719 0.187 4 0.541 3.043-2.068 4.381-1.641 4.381-1.641 0.859 2.204 0.317 3.833 0.161 4.235 1.015 1.12 1.635 2.547 1.635 4.297 0 6.145-3.74 7.5-7.296 7.891 0.556 0.479 1.077 1.464 1.077 2.959 0 2.14-0.020 3.864-0.020 4.385 0 0.416 0.28 0.916 1.104 0.755 6.4-2.093 10.979-8.093 10.979-15.156 0-8.833-7.161-16-16-16z"></path>
  </symbol>
  <symbol version="1.1" id="linkedin-svgrepo-com" xmlns="http://www.w3.org/2000/svg" xmlns:xlink="http://www.w3.org/1999/xlink" x="0px" y="0px" xml:space="preserve" viewBox="0 0 45.959 45.959">
    <g>
      <g>
        <path d="M5.392,0.492C2.268,0.492,0,2.647,0,5.614c0,2.966,2.223,5.119,5.284,5.119c1.588,0,2.956-0.515,3.957-1.489
			c0.96-0.935,1.489-2.224,1.488-3.653C10.659,2.589,8.464,0.492,5.392,0.492z M7.847,7.811C7.227,8.414,6.34,8.733,5.284,8.733
			C3.351,8.733,2,7.451,2,5.614c0-1.867,1.363-3.122,3.392-3.122c1.983,0,3.293,1.235,3.338,3.123
			C8.729,6.477,8.416,7.256,7.847,7.811z"></path>
        <path d="M0.959,45.467h8.988V12.422H0.959V45.467z M2.959,14.422h4.988v29.044H2.959V14.422z"></path>
        <path d="M33.648,12.422c-4.168,0-6.72,1.439-8.198,2.792l-0.281-2.792H15v33.044h9.959V28.099c0-0.748,0.303-2.301,0.493-2.711
			c1.203-2.591,2.826-2.591,5.284-2.591c2.831,0,5.223,2.655,5.223,5.797v16.874h10v-18.67
			C45.959,16.92,39.577,12.422,33.648,12.422z M43.959,43.467h-6V28.593c0-4.227-3.308-7.797-7.223-7.797
			c-2.512,0-5.358,0-7.099,3.75c-0.359,0.775-0.679,2.632-0.679,3.553v15.368H17V14.422h6.36l0.408,4.044h1.639l0.293-0.473
			c0.667-1.074,2.776-3.572,7.948-3.572c4.966,0,10.311,3.872,10.311,12.374V43.467z"></path>
      </g>
    </g>
    <g></g>
    <g></g>
    <g></g>
    <g></g>
    <g></g>
    <g></g>
    <g></g>
    <g></g>
    <g></g>
    <g></g>
    <g></g>
    <g></g>
    <g></g>
    <g></g>
    <g></g>
  </symbol>
</svg>